<mxfile host="Electron" agent="Mozilla/5.0 (Windows NT 10.0; Win64; x64) AppleWebKit/537.36 (KHTML, like Gecko) draw.io/26.2.2 Chrome/134.0.6998.178 Electron/35.1.2 Safari/537.36" version="26.2.2">
  <diagram name="PÃ¡gina-1" id="G07cIiQGjGg_-nuMcAKR">
    <mxGraphModel dx="2851" dy="564" grid="1" gridSize="10" guides="1" tooltips="1" connect="1" arrows="1" fold="1" page="1" pageScale="1" pageWidth="1169" pageHeight="827" math="0" shadow="0">
      <root>
        <mxCell id="0" />
        <mxCell id="1" parent="0" />
        <mxCell id="FDEyXeEifB8n9J93t-jl-5" value="" style="rounded=0;whiteSpace=wrap;html=1;fillColor=#f5f5f5;fontColor=#333333;strokeColor=default;" parent="1" vertex="1">
          <mxGeometry x="380" y="1030" width="1590" height="1100" as="geometry" />
        </mxCell>
        <mxCell id="FDEyXeEifB8n9J93t-jl-6" value="AWS Cloud" style="points=[[0,0],[0.25,0],[0.5,0],[0.75,0],[1,0],[1,0.25],[1,0.5],[1,0.75],[1,1],[0.75,1],[0.5,1],[0.25,1],[0,1],[0,0.75],[0,0.5],[0,0.25]];outlineConnect=0;gradientColor=none;html=1;whiteSpace=wrap;fontSize=12;fontStyle=0;container=1;pointerEvents=0;collapsible=0;recursiveResize=0;shape=mxgraph.aws4.group;grIcon=mxgraph.aws4.group_aws_cloud_alt;strokeColor=#232F3E;fillColor=none;verticalAlign=top;align=left;spacingLeft=30;fontColor=#232F3E;dashed=0;" parent="1" vertex="1">
          <mxGeometry x="720" y="1060" width="1160" height="1000" as="geometry" />
        </mxCell>
        <mxCell id="FDEyXeEifB8n9J93t-jl-7" style="edgeStyle=orthogonalEdgeStyle;rounded=0;orthogonalLoop=1;jettySize=auto;html=1;strokeWidth=2;strokeColor=#000000;entryX=0;entryY=0.25;entryDx=0;entryDy=0;entryPerimeter=0;" parent="FDEyXeEifB8n9J93t-jl-6" edge="1">
          <mxGeometry relative="1" as="geometry">
            <mxPoint x="210" y="280.52" as="sourcePoint" />
            <mxPoint x="380" y="280.02" as="targetPoint" />
            <Array as="points" />
          </mxGeometry>
        </mxCell>
        <mxCell id="FDEyXeEifB8n9J93t-jl-8" value="&lt;font style=&quot;font-size: 14px;&quot;&gt;API GATEWAY&lt;/font&gt;" style="sketch=0;points=[[0,0,0],[0.25,0,0],[0.5,0,0],[0.75,0,0],[1,0,0],[0,1,0],[0.25,1,0],[0.5,1,0],[0.75,1,0],[1,1,0],[0,0.25,0],[0,0.5,0],[0,0.75,0],[1,0.25,0],[1,0.5,0],[1,0.75,0]];outlineConnect=0;fontColor=#232F3E;fillColor=#E7157B;strokeColor=#ffffff;dashed=0;verticalLabelPosition=bottom;verticalAlign=top;align=center;html=1;fontSize=12;fontStyle=0;aspect=fixed;shape=mxgraph.aws4.resourceIcon;resIcon=mxgraph.aws4.api_gateway;" parent="FDEyXeEifB8n9J93t-jl-6" vertex="1">
          <mxGeometry x="130" y="265" width="78" height="78" as="geometry" />
        </mxCell>
        <mxCell id="FDEyXeEifB8n9J93t-jl-9" value="&lt;font style=&quot;font-size: 14px;&quot;&gt;EKS Loadbalancer&lt;/font&gt;&lt;div&gt;&lt;span style=&quot;font-size: 14px;&quot;&gt;Cliente&lt;/span&gt;&lt;/div&gt;" style="sketch=0;points=[[0,0,0],[0.25,0,0],[0.5,0,0],[0.75,0,0],[1,0,0],[0,1,0],[0.25,1,0],[0.5,1,0],[0.75,1,0],[1,1,0],[0,0.25,0],[0,0.5,0],[0,0.75,0],[1,0.25,0],[1,0.5,0],[1,0.75,0]];outlineConnect=0;fontColor=#232F3E;fillColor=#ED7100;strokeColor=#ffffff;dashed=0;verticalLabelPosition=bottom;verticalAlign=top;align=center;html=1;fontSize=12;fontStyle=0;aspect=fixed;shape=mxgraph.aws4.resourceIcon;resIcon=mxgraph.aws4.elastic_load_balancing;" parent="FDEyXeEifB8n9J93t-jl-6" vertex="1">
          <mxGeometry x="380" y="265" width="78" height="78" as="geometry" />
        </mxCell>
        <mxCell id="FDEyXeEifB8n9J93t-jl-10" value="&lt;font style=&quot;font-size: 14px;&quot;&gt;Pod EKS&lt;/font&gt;&lt;div&gt;&lt;font style=&quot;font-size: 14px;&quot;&gt;Cliente&lt;br&gt;&lt;/font&gt;&lt;/div&gt;" style="sketch=0;points=[[0,0,0],[0.25,0,0],[0.5,0,0],[0.75,0,0],[1,0,0],[0,1,0],[0.25,1,0],[0.5,1,0],[0.75,1,0],[1,1,0],[0,0.25,0],[0,0.5,0],[0,0.75,0],[1,0.25,0],[1,0.5,0],[1,0.75,0]];outlineConnect=0;fontColor=#232F3E;fillColor=#ED7100;strokeColor=#ffffff;dashed=0;verticalLabelPosition=bottom;verticalAlign=top;align=center;html=1;fontSize=12;fontStyle=0;aspect=fixed;shape=mxgraph.aws4.resourceIcon;resIcon=mxgraph.aws4.eks;" parent="1" vertex="1">
          <mxGeometry x="1260" y="1325" width="78" height="78" as="geometry" />
        </mxCell>
        <mxCell id="FDEyXeEifB8n9J93t-jl-11" value="&lt;font style=&quot;font-size: 14px;&quot;&gt;Pod EKS&lt;/font&gt;&lt;div&gt;&lt;font style=&quot;font-size: 14px;&quot;&gt;Cliente&lt;br&gt;&lt;/font&gt;&lt;/div&gt;" style="sketch=0;points=[[0,0,0],[0.25,0,0],[0.5,0,0],[0.75,0,0],[1,0,0],[0,1,0],[0.25,1,0],[0.5,1,0],[0.75,1,0],[1,1,0],[0,0.25,0],[0,0.5,0],[0,0.75,0],[1,0.25,0],[1,0.5,0],[1,0.75,0]];outlineConnect=0;fontColor=#232F3E;fillColor=#ED7100;strokeColor=#ffffff;dashed=0;verticalLabelPosition=bottom;verticalAlign=top;align=center;html=1;fontSize=12;fontStyle=0;aspect=fixed;shape=mxgraph.aws4.resourceIcon;resIcon=mxgraph.aws4.eks;" parent="1" vertex="1">
          <mxGeometry x="1260" y="1446" width="78" height="78" as="geometry" />
        </mxCell>
        <mxCell id="FDEyXeEifB8n9J93t-jl-12" value="&lt;font style=&quot;font-size: 14px;&quot;&gt;DocumentDB&lt;/font&gt;&lt;div&gt;&lt;font style=&quot;font-size: 14px;&quot;&gt;Cliente&lt;br&gt;&lt;/font&gt;&lt;/div&gt;" style="sketch=0;points=[[0,0,0],[0.25,0,0],[0.5,0,0],[0.75,0,0],[1,0,0],[0,1,0],[0.25,1,0],[0.5,1,0],[0.75,1,0],[1,1,0],[0,0.25,0],[0,0.5,0],[0,0.75,0],[1,0.25,0],[1,0.5,0],[1,0.75,0]];outlineConnect=0;fontColor=#232F3E;fillColor=#C925D1;strokeColor=#ffffff;dashed=0;verticalLabelPosition=bottom;verticalAlign=top;align=center;html=1;fontSize=12;fontStyle=0;aspect=fixed;shape=mxgraph.aws4.resourceIcon;resIcon=mxgraph.aws4.documentdb_with_mongodb_compatibility;" parent="1" vertex="1">
          <mxGeometry x="1260" y="1150" width="78" height="78" as="geometry" />
        </mxCell>
        <mxCell id="FDEyXeEifB8n9J93t-jl-13" value="&lt;font style=&quot;font-size: 14px;&quot;&gt;Coginito&lt;/font&gt;" style="sketch=0;points=[[0,0,0],[0.25,0,0],[0.5,0,0],[0.75,0,0],[1,0,0],[0,1,0],[0.25,1,0],[0.5,1,0],[0.75,1,0],[1,1,0],[0,0.25,0],[0,0.5,0],[0,0.75,0],[1,0.25,0],[1,0.5,0],[1,0.75,0]];outlineConnect=0;fontColor=#232F3E;fillColor=#DD344C;strokeColor=#ffffff;dashed=0;verticalLabelPosition=bottom;verticalAlign=top;align=center;html=1;fontSize=12;fontStyle=0;aspect=fixed;shape=mxgraph.aws4.resourceIcon;resIcon=mxgraph.aws4.cognito;" parent="1" vertex="1">
          <mxGeometry x="847" y="1180" width="78" height="78" as="geometry" />
        </mxCell>
        <mxCell id="FDEyXeEifB8n9J93t-jl-14" value="&lt;font style=&quot;font-size: 14px;&quot;&gt;FrontEnd&lt;/font&gt;" style="sketch=0;outlineConnect=0;fontColor=#232F3E;gradientColor=none;fillColor=#232F3D;strokeColor=none;dashed=0;verticalLabelPosition=bottom;verticalAlign=top;align=center;html=1;fontSize=12;fontStyle=0;aspect=fixed;pointerEvents=1;shape=mxgraph.aws4.client;" parent="1" vertex="1">
          <mxGeometry x="550" y="1325" width="78" height="76" as="geometry" />
        </mxCell>
        <mxCell id="FDEyXeEifB8n9J93t-jl-15" value="VPC" style="points=[[0,0],[0.25,0],[0.5,0],[0.75,0],[1,0],[1,0.25],[1,0.5],[1,0.75],[1,1],[0.75,1],[0.5,1],[0.25,1],[0,1],[0,0.75],[0,0.5],[0,0.25]];outlineConnect=0;gradientColor=none;html=1;whiteSpace=wrap;fontSize=12;fontStyle=0;container=1;pointerEvents=0;collapsible=0;recursiveResize=0;shape=mxgraph.aws4.group;grIcon=mxgraph.aws4.group_vpc2;strokeColor=#8C4FFF;fillColor=none;verticalAlign=top;align=left;spacingLeft=30;fontColor=#AAB7B8;dashed=0;" parent="1" vertex="1">
          <mxGeometry x="1060" y="1100" width="760" height="940" as="geometry" />
        </mxCell>
        <mxCell id="FDEyXeEifB8n9J93t-jl-17" value="Security group" style="fillColor=none;strokeColor=#DD3522;verticalAlign=top;fontStyle=0;fontColor=#DD3522;whiteSpace=wrap;html=1;" parent="FDEyXeEifB8n9J93t-jl-15" vertex="1">
          <mxGeometry x="180" y="197" width="120" height="270" as="geometry" />
        </mxCell>
        <mxCell id="FDEyXeEifB8n9J93t-jl-16" value="Security group" style="fillColor=none;strokeColor=#DD3522;verticalAlign=top;fontStyle=0;fontColor=#DD3522;whiteSpace=wrap;html=1;" parent="FDEyXeEifB8n9J93t-jl-15" vertex="1">
          <mxGeometry x="180" y="19" width="120" height="150" as="geometry" />
        </mxCell>
        <mxCell id="FDEyXeEifB8n9J93t-jl-18" style="edgeStyle=orthogonalEdgeStyle;rounded=0;orthogonalLoop=1;jettySize=auto;html=1;exitX=0.5;exitY=0;exitDx=0;exitDy=0;strokeColor=#000000;strokeWidth=2;" parent="FDEyXeEifB8n9J93t-jl-15" source="FDEyXeEifB8n9J93t-jl-17" target="FDEyXeEifB8n9J93t-jl-16" edge="1">
          <mxGeometry relative="1" as="geometry" />
        </mxCell>
        <mxCell id="FDEyXeEifB8n9J93t-jl-33" value="Security group" style="fillColor=none;strokeColor=#DD3522;verticalAlign=top;fontStyle=0;fontColor=#DD3522;whiteSpace=wrap;html=1;" parent="FDEyXeEifB8n9J93t-jl-15" vertex="1">
          <mxGeometry x="540" y="190" width="120" height="160" as="geometry" />
        </mxCell>
        <mxCell id="FDEyXeEifB8n9J93t-jl-34" value="Security group" style="fillColor=none;strokeColor=#DD3522;verticalAlign=top;fontStyle=0;fontColor=#DD3522;whiteSpace=wrap;html=1;" parent="FDEyXeEifB8n9J93t-jl-15" vertex="1">
          <mxGeometry x="540" y="376" width="120" height="280" as="geometry" />
        </mxCell>
        <mxCell id="FDEyXeEifB8n9J93t-jl-35" value="Security group" style="fillColor=none;strokeColor=#DD3522;verticalAlign=top;fontStyle=0;fontColor=#DD3522;whiteSpace=wrap;html=1;" parent="FDEyXeEifB8n9J93t-jl-15" vertex="1">
          <mxGeometry x="179" y="668" width="120" height="261" as="geometry" />
        </mxCell>
        <mxCell id="FDEyXeEifB8n9J93t-jl-36" value="Security group" style="fillColor=none;strokeColor=#DD3522;verticalAlign=top;fontStyle=0;fontColor=#DD3522;whiteSpace=wrap;html=1;" parent="FDEyXeEifB8n9J93t-jl-15" vertex="1">
          <mxGeometry x="180" y="490" width="120" height="150" as="geometry" />
        </mxCell>
        <mxCell id="FDEyXeEifB8n9J93t-jl-40" style="edgeStyle=orthogonalEdgeStyle;rounded=0;orthogonalLoop=1;jettySize=auto;html=1;exitX=0.5;exitY=0;exitDx=0;exitDy=0;strokeColor=#000000;strokeWidth=2;entryX=0.5;entryY=1;entryDx=0;entryDy=0;" parent="FDEyXeEifB8n9J93t-jl-15" source="FDEyXeEifB8n9J93t-jl-34" target="FDEyXeEifB8n9J93t-jl-33" edge="1">
          <mxGeometry relative="1" as="geometry">
            <mxPoint x="250" y="200" as="sourcePoint" />
            <mxPoint x="249" y="170" as="targetPoint" />
          </mxGeometry>
        </mxCell>
        <mxCell id="FDEyXeEifB8n9J93t-jl-19" value="Envio de Token" style="edgeStyle=orthogonalEdgeStyle;rounded=0;orthogonalLoop=1;jettySize=auto;html=1;entryX=0;entryY=0.5;entryDx=0;entryDy=0;entryPerimeter=0;strokeColor=#000000;strokeWidth=2;" parent="1" source="FDEyXeEifB8n9J93t-jl-14" target="FDEyXeEifB8n9J93t-jl-8" edge="1">
          <mxGeometry relative="1" as="geometry">
            <mxPoint x="780" y="1364" as="targetPoint" />
          </mxGeometry>
        </mxCell>
        <mxCell id="FDEyXeEifB8n9J93t-jl-20" value="ValidaÃ§Ã£o Token" style="edgeStyle=orthogonalEdgeStyle;rounded=0;orthogonalLoop=1;jettySize=auto;html=1;entryX=0.5;entryY=1;entryDx=0;entryDy=0;entryPerimeter=0;strokeWidth=2;strokeColor=#000000;" parent="1" target="FDEyXeEifB8n9J93t-jl-13" edge="1">
          <mxGeometry relative="1" as="geometry">
            <mxPoint x="886" y="1325" as="sourcePoint" />
          </mxGeometry>
        </mxCell>
        <mxCell id="FDEyXeEifB8n9J93t-jl-21" value="" style="edgeStyle=orthogonalEdgeStyle;rounded=0;orthogonalLoop=1;jettySize=auto;html=1;strokeWidth=2;strokeColor=#000000;" parent="1" source="FDEyXeEifB8n9J93t-jl-9" target="FDEyXeEifB8n9J93t-jl-17" edge="1">
          <mxGeometry relative="1" as="geometry" />
        </mxCell>
        <mxCell id="FDEyXeEifB8n9J93t-jl-22" style="edgeStyle=orthogonalEdgeStyle;rounded=0;orthogonalLoop=1;jettySize=auto;html=1;entryX=0;entryY=0.5;entryDx=0;entryDy=0;entryPerimeter=0;strokeColor=#000000;strokeWidth=2;" parent="1" source="FDEyXeEifB8n9J93t-jl-14" target="FDEyXeEifB8n9J93t-jl-13" edge="1">
          <mxGeometry relative="1" as="geometry">
            <Array as="points">
              <mxPoint x="589" y="1219" />
            </Array>
          </mxGeometry>
        </mxCell>
        <mxCell id="XvR4nWSsTKqe-90lQB_N-1" value="AutenticaÃ§Ã£o e Captura de Token" style="edgeLabel;html=1;align=center;verticalAlign=middle;resizable=0;points=[];" vertex="1" connectable="0" parent="FDEyXeEifB8n9J93t-jl-22">
          <mxGeometry x="0.0195" y="2" relative="1" as="geometry">
            <mxPoint as="offset" />
          </mxGeometry>
        </mxCell>
        <mxCell id="FDEyXeEifB8n9J93t-jl-24" value="&lt;font style=&quot;font-size: 14px;&quot;&gt;Pod EKS&lt;/font&gt;&lt;div&gt;&lt;font style=&quot;font-size: 14px;&quot;&gt;Produto&lt;br&gt;&lt;/font&gt;&lt;/div&gt;" style="sketch=0;points=[[0,0,0],[0.25,0,0],[0.5,0,0],[0.75,0,0],[1,0,0],[0,1,0],[0.25,1,0],[0.5,1,0],[0.75,1,0],[1,1,0],[0,0.25,0],[0,0.5,0],[0,0.75,0],[1,0.25,0],[1,0.5,0],[1,0.75,0]];outlineConnect=0;fontColor=#232F3E;fillColor=#ED7100;strokeColor=#ffffff;dashed=0;verticalLabelPosition=bottom;verticalAlign=top;align=center;html=1;fontSize=12;fontStyle=0;aspect=fixed;shape=mxgraph.aws4.resourceIcon;resIcon=mxgraph.aws4.eks;" parent="1" vertex="1">
          <mxGeometry x="1260" y="1795" width="78" height="78" as="geometry" />
        </mxCell>
        <mxCell id="FDEyXeEifB8n9J93t-jl-25" value="&lt;font style=&quot;font-size: 14px;&quot;&gt;Pod EKS&lt;/font&gt;&lt;div&gt;&lt;span style=&quot;font-size: 14px;&quot;&gt;Produto&lt;/span&gt;&lt;/div&gt;" style="sketch=0;points=[[0,0,0],[0.25,0,0],[0.5,0,0],[0.75,0,0],[1,0,0],[0,1,0],[0.25,1,0],[0.5,1,0],[0.75,1,0],[1,1,0],[0,0.25,0],[0,0.5,0],[0,0.75,0],[1,0.25,0],[1,0.5,0],[1,0.75,0]];outlineConnect=0;fontColor=#232F3E;fillColor=#ED7100;strokeColor=#ffffff;dashed=0;verticalLabelPosition=bottom;verticalAlign=top;align=center;html=1;fontSize=12;fontStyle=0;aspect=fixed;shape=mxgraph.aws4.resourceIcon;resIcon=mxgraph.aws4.eks;" parent="1" vertex="1">
          <mxGeometry x="1260" y="1910" width="78" height="78" as="geometry" />
        </mxCell>
        <mxCell id="FDEyXeEifB8n9J93t-jl-26" value="&lt;font style=&quot;font-size: 14px;&quot;&gt;DocumentDB&lt;/font&gt;&lt;div&gt;&lt;span style=&quot;font-size: 14px;&quot;&gt;Produto&lt;/span&gt;&lt;/div&gt;" style="sketch=0;points=[[0,0,0],[0.25,0,0],[0.5,0,0],[0.75,0,0],[1,0,0],[0,1,0],[0.25,1,0],[0.5,1,0],[0.75,1,0],[1,1,0],[0,0.25,0],[0,0.5,0],[0,0.75,0],[1,0.25,0],[1,0.5,0],[1,0.75,0]];outlineConnect=0;fontColor=#232F3E;fillColor=#C925D1;strokeColor=#ffffff;dashed=0;verticalLabelPosition=bottom;verticalAlign=top;align=center;html=1;fontSize=12;fontStyle=0;aspect=fixed;shape=mxgraph.aws4.resourceIcon;resIcon=mxgraph.aws4.documentdb_with_mongodb_compatibility;" parent="1" vertex="1">
          <mxGeometry x="1260" y="1620" width="78" height="78" as="geometry" />
        </mxCell>
        <mxCell id="FDEyXeEifB8n9J93t-jl-27" value="&lt;font style=&quot;font-size: 14px;&quot;&gt;Pod EKS&lt;/font&gt;&lt;div&gt;&lt;font style=&quot;font-size: 14px;&quot;&gt;Venda&lt;/font&gt;&lt;/div&gt;" style="sketch=0;points=[[0,0,0],[0.25,0,0],[0.5,0,0],[0.75,0,0],[1,0,0],[0,1,0],[0.25,1,0],[0.5,1,0],[0.75,1,0],[1,1,0],[0,0.25,0],[0,0.5,0],[0,0.75,0],[1,0.25,0],[1,0.5,0],[1,0.75,0]];outlineConnect=0;fontColor=#232F3E;fillColor=#ED7100;strokeColor=#ffffff;dashed=0;verticalLabelPosition=bottom;verticalAlign=top;align=center;html=1;fontSize=12;fontStyle=0;aspect=fixed;shape=mxgraph.aws4.resourceIcon;resIcon=mxgraph.aws4.eks;" parent="1" vertex="1">
          <mxGeometry x="1618" y="1506" width="78" height="78" as="geometry" />
        </mxCell>
        <mxCell id="FDEyXeEifB8n9J93t-jl-28" value="&lt;font style=&quot;font-size: 14px;&quot;&gt;Pod EKS&lt;/font&gt;&lt;div&gt;&lt;font style=&quot;font-size: 14px;&quot;&gt;Venda&lt;/font&gt;&lt;/div&gt;" style="sketch=0;points=[[0,0,0],[0.25,0,0],[0.5,0,0],[0.75,0,0],[1,0,0],[0,1,0],[0.25,1,0],[0.5,1,0],[0.75,1,0],[1,1,0],[0,0.25,0],[0,0.5,0],[0,0.75,0],[1,0.25,0],[1,0.5,0],[1,0.75,0]];outlineConnect=0;fontColor=#232F3E;fillColor=#ED7100;strokeColor=#ffffff;dashed=0;verticalLabelPosition=bottom;verticalAlign=top;align=center;html=1;fontSize=12;fontStyle=0;aspect=fixed;shape=mxgraph.aws4.resourceIcon;resIcon=mxgraph.aws4.eks;" parent="1" vertex="1">
          <mxGeometry x="1618" y="1621" width="78" height="78" as="geometry" />
        </mxCell>
        <mxCell id="FDEyXeEifB8n9J93t-jl-29" value="&lt;font style=&quot;font-size: 14px;&quot;&gt;DocumentDB&lt;/font&gt;&lt;div&gt;&lt;font style=&quot;font-size: 14px;&quot;&gt;Venda&lt;/font&gt;&lt;/div&gt;" style="sketch=0;points=[[0,0,0],[0.25,0,0],[0.5,0,0],[0.75,0,0],[1,0,0],[0,1,0],[0.25,1,0],[0.5,1,0],[0.75,1,0],[1,1,0],[0,0.25,0],[0,0.5,0],[0,0.75,0],[1,0.25,0],[1,0.5,0],[1,0.75,0]];outlineConnect=0;fontColor=#232F3E;fillColor=#C925D1;strokeColor=#ffffff;dashed=0;verticalLabelPosition=bottom;verticalAlign=top;align=center;html=1;fontSize=12;fontStyle=0;aspect=fixed;shape=mxgraph.aws4.resourceIcon;resIcon=mxgraph.aws4.documentdb_with_mongodb_compatibility;" parent="1" vertex="1">
          <mxGeometry x="1618" y="1325" width="78" height="78" as="geometry" />
        </mxCell>
        <mxCell id="FDEyXeEifB8n9J93t-jl-31" value="&lt;font style=&quot;font-size: 14px;&quot;&gt;EKS Loadbalancer&lt;/font&gt;&lt;div&gt;&lt;span style=&quot;font-size: 14px;&quot;&gt;Venda&lt;/span&gt;&lt;/div&gt;" style="sketch=0;points=[[0,0,0],[0.25,0,0],[0.5,0,0],[0.75,0,0],[1,0,0],[0,1,0],[0.25,1,0],[0.5,1,0],[0.75,1,0],[1,1,0],[0,0.25,0],[0,0.5,0],[0,0.75,0],[1,0.25,0],[1,0.5,0],[1,0.75,0]];outlineConnect=0;fontColor=#232F3E;fillColor=#ED7100;strokeColor=#ffffff;dashed=0;verticalLabelPosition=bottom;verticalAlign=top;align=center;html=1;fontSize=12;fontStyle=0;aspect=fixed;shape=mxgraph.aws4.resourceIcon;resIcon=mxgraph.aws4.elastic_load_balancing;" parent="1" vertex="1">
          <mxGeometry x="1478" y="1531" width="78" height="78" as="geometry" />
        </mxCell>
        <mxCell id="FDEyXeEifB8n9J93t-jl-32" value="&lt;font style=&quot;font-size: 14px;&quot;&gt;EKS Loadbalancer&lt;/font&gt;&lt;div&gt;&lt;font style=&quot;font-size: 14px;&quot;&gt;Produto&lt;/font&gt;&lt;/div&gt;" style="sketch=0;points=[[0,0,0],[0.25,0,0],[0.5,0,0],[0.75,0,0],[1,0,0],[0,1,0],[0.25,1,0],[0.5,1,0],[0.75,1,0],[1,1,0],[0,0.25,0],[0,0.5,0],[0,0.75,0],[1,0.25,0],[1,0.5,0],[1,0.75,0]];outlineConnect=0;fontColor=#232F3E;fillColor=#ED7100;strokeColor=#ffffff;dashed=0;verticalLabelPosition=bottom;verticalAlign=top;align=center;html=1;fontSize=12;fontStyle=0;aspect=fixed;shape=mxgraph.aws4.resourceIcon;resIcon=mxgraph.aws4.elastic_load_balancing;" parent="1" vertex="1">
          <mxGeometry x="1120" y="1750" width="78" height="78" as="geometry" />
        </mxCell>
        <mxCell id="FDEyXeEifB8n9J93t-jl-37" style="edgeStyle=orthogonalEdgeStyle;rounded=0;orthogonalLoop=1;jettySize=auto;html=1;strokeWidth=2;strokeColor=#000000;exitX=1;exitY=0.75;exitDx=0;exitDy=0;exitPerimeter=0;entryX=0;entryY=0.5;entryDx=0;entryDy=0;entryPerimeter=0;" parent="1" source="FDEyXeEifB8n9J93t-jl-8" target="FDEyXeEifB8n9J93t-jl-32" edge="1">
          <mxGeometry relative="1" as="geometry">
            <mxPoint x="938" y="1374" as="sourcePoint" />
            <mxPoint x="1110" y="1374" as="targetPoint" />
          </mxGeometry>
        </mxCell>
        <mxCell id="FDEyXeEifB8n9J93t-jl-38" style="edgeStyle=orthogonalEdgeStyle;rounded=0;orthogonalLoop=1;jettySize=auto;html=1;strokeWidth=2;strokeColor=#000000;entryX=0;entryY=0.5;entryDx=0;entryDy=0;entryPerimeter=0;exitX=1;exitY=0.5;exitDx=0;exitDy=0;exitPerimeter=0;" parent="1" target="FDEyXeEifB8n9J93t-jl-31" edge="1" source="FDEyXeEifB8n9J93t-jl-8">
          <mxGeometry relative="1" as="geometry">
            <mxPoint x="930" y="1360" as="sourcePoint" />
            <mxPoint x="1130" y="1799" as="targetPoint" />
            <Array as="points">
              <mxPoint x="1070" y="1364" />
              <mxPoint x="1070" y="1570" />
            </Array>
          </mxGeometry>
        </mxCell>
        <mxCell id="FDEyXeEifB8n9J93t-jl-39" value="" style="edgeStyle=orthogonalEdgeStyle;rounded=0;orthogonalLoop=1;jettySize=auto;html=1;strokeWidth=2;strokeColor=#000000;entryX=0;entryY=0.5;entryDx=0;entryDy=0;exitX=1;exitY=0.5;exitDx=0;exitDy=0;exitPerimeter=0;" parent="1" source="FDEyXeEifB8n9J93t-jl-31" target="FDEyXeEifB8n9J93t-jl-34" edge="1">
          <mxGeometry relative="1" as="geometry">
            <mxPoint x="1188" y="1374" as="sourcePoint" />
            <mxPoint x="1250" y="1431" as="targetPoint" />
          </mxGeometry>
        </mxCell>
        <mxCell id="FDEyXeEifB8n9J93t-jl-41" value="" style="edgeStyle=orthogonalEdgeStyle;rounded=0;orthogonalLoop=1;jettySize=auto;html=1;strokeWidth=2;strokeColor=#000000;entryX=0;entryY=0.5;entryDx=0;entryDy=0;exitX=1;exitY=0.5;exitDx=0;exitDy=0;exitPerimeter=0;" parent="1" source="FDEyXeEifB8n9J93t-jl-32" target="FDEyXeEifB8n9J93t-jl-35" edge="1">
          <mxGeometry relative="1" as="geometry">
            <mxPoint x="1566" y="1580" as="sourcePoint" />
            <mxPoint x="1610" y="1611" as="targetPoint" />
          </mxGeometry>
        </mxCell>
        <mxCell id="FDEyXeEifB8n9J93t-jl-42" style="edgeStyle=orthogonalEdgeStyle;rounded=0;orthogonalLoop=1;jettySize=auto;html=1;exitX=0.5;exitY=0;exitDx=0;exitDy=0;strokeColor=#000000;strokeWidth=2;" parent="1" source="FDEyXeEifB8n9J93t-jl-35" edge="1">
          <mxGeometry relative="1" as="geometry">
            <mxPoint x="1670" y="1480" as="sourcePoint" />
            <mxPoint x="1299" y="1740" as="targetPoint" />
          </mxGeometry>
        </mxCell>
      </root>
    </mxGraphModel>
  </diagram>
</mxfile>
